<mxfile host="app.diagrams.net" modified="2024-06-25T05:31:49.998Z" agent="Mozilla/5.0 (Macintosh; Intel Mac OS X 10.15; rv:127.0) Gecko/20100101 Firefox/127.0" etag="JbDJ3TAqdok0tsXxStuc" version="24.6.2" type="github">
  <diagram name="Page-1" id="UMCraz2ozo_AV8kpycfj">
    <mxGraphModel dx="858" dy="530" grid="1" gridSize="10" guides="1" tooltips="1" connect="1" arrows="1" fold="1" page="1" pageScale="1" pageWidth="850" pageHeight="1100" math="0" shadow="0">
      <root>
        <mxCell id="0" />
        <mxCell id="1" parent="0" />
      </root>
    </mxGraphModel>
  </diagram>
</mxfile>
